<svg width="22" height="22" viewBox="0 0 22 22" fill="none" xmlns="http://www.w3.org/2000/svg">
<line y1="3" x2="22" y2="3" stroke="#4C5948" strokeWidth="2"/>
<path d="M8 3C8 4.10457 7.10457 5 6 5C4.89543 5 4 4.10457 4 3C4 1.89543 4.89543 1 6 1C7.10457 1 8 1.89543 8 3Z" fill="#EEE8D0" stroke="#4C5948" strokeWidth="2"/>
<line y1="11" x2="22" y2="11" stroke="#4C5948" strokeWidth="2"/>
<path d="M18 11C18 12.1046 17.1046 13 16 13C14.8954 13 14 12.1046 14 11C14 9.89543 14.8954 9 16 9C17.1046 9 18 9.89543 18 11Z" fill="#EEE8D0" stroke="#4C5948" strokeWidth="2"/>
<line y1="19" x2="22" y2="19" stroke="#4C5948" strokeWidth="2"/>
<circle cx="10" cy="19" r="2" fill="#EEE8D0" stroke="#4C5948" strokeWidth="2"/>
</svg>
